<?xml version="1.0" encoding="iso-8859-1"?>
<!-- Generator: Adobe Illustrator 18.1.1, SVG Export Plug-In . SVG Version: 6.00 Build 0)  -->
<svg xmlns="http://www.w3.org/2000/svg" xmlns:xlink="http://www.w3.org/1999/xlink" version="1.1" id="Capa_1" x="0px" y="0px" viewBox="0 0 49.696 49.696" style="enable-background:new 0 0 49.696 49.696;" xml:space="preserve" width="512px" height="512px">
<g>
	<path d="M49.301,44.35L26.788,3.098c-0.496-0.908-1.252-1.43-2.073-1.43c-0.825,0-1.581,0.524-2.075,1.439   L0.387,44.348c-0.484,0.899-0.516,1.827-0.086,2.547s1.261,1.134,2.282,1.134h44.535c1.021,0,1.852-0.414,2.28-1.135   C49.826,46.173,49.792,45.247,49.301,44.35z M47.678,45.872c-0.037,0.062-0.217,0.154-0.561,0.154H2.583   c-0.345,0-0.526-0.095-0.564-0.158c-0.038-0.062-0.035-0.268,0.129-0.571L24.401,4.058c0.154-0.286,0.293-0.381,0.3-0.392   c0.037,0.011,0.176,0.104,0.332,0.391l22.513,41.252C47.71,45.611,47.716,45.811,47.678,45.872z" fill="#FFFFFF"/>
</g>
<g>
</g>
<g>
</g>
<g>
</g>
<g>
</g>
<g>
</g>
<g>
</g>
<g>
</g>
<g>
</g>
<g>
</g>
<g>
</g>
<g>
</g>
<g>
</g>
<g>
</g>
<g>
</g>
<g>
</g>
</svg>
