<?xml version="1.0" encoding="utf-8"?>
<!-- Generator: Adobe Illustrator 19.1.0, SVG Export Plug-In . SVG Version: 6.00 Build 0)  -->
<svg version="1.1" id="Capa_1" xmlns="http://www.w3.org/2000/svg" xmlns:xlink="http://www.w3.org/1999/xlink" x="0px" y="0px"
	 viewBox="2 -39.3 698 455.1" style="enable-background:new 2 -39.3 698 455.1;" xml:space="preserve">
<style type="text/css">
	.st0{fill:#FFFFFF;}
</style>
<g>
	<path class="st0" d="M694.5,379.7L378.3-25.2c-7-8.9-17.6-14-29.1-14c-11.6,0-22.2,5.1-29.1,14.1L7.4,379.7
		c-6.8,8.8-7.2,17.9-1.2,25c6,7.1,17.7,11.1,32.1,11.1h625.5c14.3,0,26-4.1,32-11.1C701.8,397.6,701.4,388.5,694.5,379.7z
		 M671.7,394.7c-0.5,0.6-3,1.5-7.9,1.5H38.3c-4.8,0-7.4-0.9-7.9-1.6c-0.5-0.6-0.5-2.6,1.8-5.6L344.7-15.8c2.2-2.8,4.1-3.7,4.2-3.8
		c0.5,0.1,2.5,1,4.7,3.8l316.2,404.9C672.1,392.1,672.2,394.1,671.7,394.7z"/>
</g>
</svg>
