<svg width="49.696" height="49.696" xmlns="http://www.w3.org/2000/svg">

 <g>
  <title>background</title>
  <rect fill="none" id="canvas_background" height="402" width="582" y="-1" x="-1"/>
 </g>
 <g>
  <title>Layer 1</title>
  <g stroke="null" id="svg_1">
   <path stroke="null" id="svg_2" fill="#FFFFFF" d="m43.007884,44.009651l-16.7769,-35.228211c-0.369624,-0.77541 -0.933002,-1.221185 -1.544819,-1.221185c-0.614798,0 -1.178176,0.447483 -1.54631,1.228871l-16.583146,35.218817c-0.360681,0.767724 -0.384528,1.560214 -0.064088,2.175076s0.939709,0.968409 1.700568,0.968409l33.187903,0c0.760859,0 1.380128,-0.353546 1.699078,-0.969263c0.31895,-0.615717 0.293613,-1.406498 -0.072285,-2.172514zm-1.209475,1.299751c-0.027573,0.052947 -0.16171,0.131512 -0.418063,0.131512l-33.187158,0c-0.257097,0 -0.39198,-0.081128 -0.420298,-0.134928c-0.028318,-0.052947 -0.026082,-0.228866 0.096132,-0.48762l16.583146,-35.217109c0.114762,-0.244237 0.218346,-0.325365 0.223563,-0.334759c0.027573,0.009394 0.131157,0.088813 0.24741,0.333905l16.7769,35.228211c0.122214,0.257901 0.126686,0.428696 0.098368,0.480788z"/>
  </g>
  <g id="svg_3"/>
  <g id="svg_4"/>
  <g id="svg_5"/>
  <g id="svg_6"/>
  <g id="svg_7"/>
  <g id="svg_8"/>
  <g id="svg_9"/>
  <g id="svg_10"/>
  <g id="svg_11"/>
  <g id="svg_12"/>
  <g id="svg_13"/>
  <g id="svg_14"/>
  <g id="svg_15"/>
  <g id="svg_16"/>
  <g id="svg_17"/>
 </g>
</svg>